<?xml version="1.0" encoding="UTF-8" standalone="no"?>
<!-- Created with Inkscape (http://www.inkscape.org/) -->

<svg
   version="1.1"
   id="svg2"
   width="954.66669"
   height="948"
   viewBox="0 0 954.66669 948"
   xmlns="http://www.w3.org/2000/svg"
   xmlns:svg="http://www.w3.org/2000/svg">
  <defs
     id="defs6" />
  <g
     id="g8"
     transform="matrix(1.3333333,0,0,1.3333333,0,2.37e-5)">
    <path
       d="m 167.07,0 c 8.97,1.94 14.83,9.41 19.19,17.02 6.11,10.68 10.61,22.72 14.15,34.75 8.88,30.2 14.07,62.48 17.65,95.01 0.01,0.11 0.1,0.19 0.21,0.19 0.11,0.01 0.2,-0.07 0.22,-0.18 4.07,-27.87 9.3,-56.04 19.41,-81.14 1.45,-3.61 3.36,-7.36 5.75,-11.25 16.08,-26.24 29.97,1.62 35.06,15.37 4.57,12.35 8.43,26.26 11.57,41.73 5.29,26.08 9.31,54.2 12.06,84.35 0.95,10.43 1.95,23.11 2.99,38.06 0.01,0.12 0.1,0.21 0.22,0.22 0.12,0.01 0.23,-0.07 0.25,-0.19 4.42,-20.44 25.81,-105.16 60.92,-90.07 7.08,3.05 13.62,10.75 17.88,17.53 13.56,21.55 21.01,47.8 26.86,72.68 0.02,0.08 0.1,0.14 0.18,0.13 0.09,-0.01 0.15,-0.07 0.16,-0.16 2.82,-46.04 7.78,-92.34 18.21,-136.55 2.52,-10.68 14.83,-59.58 32.65,-53.37 6.42,2.23 11.22,10.04 14.1,16.14 3.94,8.35 7.18,17.18 9.72,26.49 5.35,19.63 9.39,39.64 12.12,60.01 0.02,0.12 0.12,0.21 0.24,0.21 0.12,0 0.22,-0.09 0.23,-0.21 3.6,-32.5 8.9,-65.06 17.78,-95.47 3.37,-11.53 7.84,-22.63 13.41,-33.29 1.71,-3.27 4.23,-6.83 7.56,-10.67 3.32,-3.82 7.39,-6.27 12.22,-7.34 h 3.27 c 5.26,1.22 9.65,4.06 13.17,8.53 5,6.35 8.97,13.13 11.92,20.34 10.27,25.06 16.17,51.79 20.57,78.82 0.01,0.09 0.09,0.15 0.18,0.15 0.09,0 0.17,-0.06 0.18,-0.15 1.96,-12.19 4.78,-24.17 8.47,-35.92 2.29,-7.33 5.99,-16.72 11.47,-22.16 11.96,-11.86 21.46,11.5 24.07,19.4 4.55,13.77 8,28.45 10.36,44.03 3.29,21.75 5.54,42.9 6.76,63.46 2.88,48.58 1.98,96.49 -2.7,143.74 -1.84,18.6 -4.78,36.93 -8.82,54.99 -1.51,6.77 -3.58,13.86 -6.21,21.25 -2.71,7.6 -11.99,29.6 -23.53,17.81 -2.2,-2.25 -3.95,-4.67 -5.25,-7.26 -4.19,-8.37 -7.31,-17.08 -9.36,-26.13 -0.03,-0.14 -0.16,-0.24 -0.3,-0.23 -0.15,0.01 -0.26,0.13 -0.28,0.27 -2.56,24.18 -6.37,47.62 -11.44,70.33 -3.45,15.45 -7.77,29.74 -12.94,42.85 -4.07,10.32 -12.9,28.81 -25.09,31.53 -27.83,6.21 -44.03,-73.63 -47.38,-90.95 -0.01,-0.05 -0.05,-0.09 -0.1,-0.08 -0.06,0 -0.1,0.04 -0.1,0.09 -2.99,43.87 -7.96,88.42 -18.26,130.77 -2.75,11.32 -13.94,53.27 -29.74,51.64 -19.72,-2.05 -31.33,-62.54 -34.14,-78.02 -0.02,-0.11 -0.11,-0.18 -0.22,-0.18 -0.11,0 -0.2,0.08 -0.21,0.19 -3.67,33.14 -9.22,67.1 -17.68,97.62 -5.59,20.17 -13.12,41.87 -25.45,58.99 -3.94,5.47 -8.51,9.58 -13.71,12.32 -13.39,7.06 -26.24,-3.84 -33.25,-14.33 -6.19,-9.27 -11.33,-19.53 -15.43,-30.78 -14.4,-39.48 -21.74,-82.01 -26.18,-123.96 0,-0.05 -0.04,-0.08 -0.09,-0.09 -0.05,0 -0.09,0.03 -0.1,0.08 -1.42,6.83 -3.2,14.83 -5.34,23.99 -2.46,10.53 -17.39,70.83 -38.54,49.85 -5.86,-5.81 -9.97,-15.09 -13.04,-23.6 -2.84,-7.9 -5.19,-15.64 -7.05,-23.21 -10.39,-42.33 -15.4,-87 -18.34,-131.24 0,-0.08 -0.07,-0.15 -0.15,-0.15 -0.08,-0.01 -0.16,0.05 -0.17,0.13 -3.84,20.52 -9.01,41.23 -16.96,60.72 -3.93,9.63 -9.66,20.75 -17.89,27.02 -18.14,13.81 -32.51,-15.71 -37.48,-28.24 -5.07,-12.77 -9.28,-26.51 -12.61,-41.21 -5.29,-23.38 -9.24,-47.42 -11.84,-72.11 -0.01,-0.13 -0.12,-0.23 -0.25,-0.24 -0.13,-0.01 -0.25,0.07 -0.28,0.2 -2.6,10.44 -6.15,21.33 -12.04,30.38 -1,1.53 -2.43,3.01 -4.28,4.45 C 83.14,425.88 73.29,394.26 71.26,386.99 63.86,360.54 60.18,333.02 57.95,305.26 54.07,256.74 54.04,208.32 57.85,160 59.52,138.93 62.09,119.26 65.56,101.01 68.22,87 71.49,73.33 77.08,60.81 79.2,56.07 82.62,49.93 87.29,47.36 c 18.23,-10.01 29.02,51.43 30.57,60.36 0.02,0.09 0.1,0.16 0.19,0.15 0.09,0 0.17,-0.07 0.18,-0.16 3.21,-21.53 7.99,-42.33 14.33,-62.4 3.26,-10.33 7.31,-19.77 12.15,-28.31 4.27,-7.54 10.13,-14.96 19.06,-17 z"
       style="fill:#a335ff;fill-opacity:1;fill-rule:nonzero;stroke:none"
       id="path10" />
    <path
       d="M 23.87,296.68 C 12.56,296.68 3.4,259.53 3.4,213.7 c 0,-45.83 9.16,-82.98 20.47,-82.98 11.31,0 20.47,37.15 20.47,82.98 0,45.83 -9.16,82.98 -20.47,82.98 z"
       style="fill:#a335ff;fill-opacity:1;fill-rule:nonzero;stroke:none"
       id="path12" />
    <path
       d="m 693.2,296.68 c -11.3,0 -20.46,-37.15 -20.46,-82.98 0,-45.83 9.16,-82.98 20.46,-82.98 11.3,0 20.46,37.15 20.46,82.98 0,45.83 -9.16,82.98 -20.46,82.98 z"
       style="fill:#a335ff;fill-opacity:1;fill-rule:nonzero;stroke:none"
       id="path14" />
  </g>
</svg>
