<svg xmlns="http://www.w3.org/2000/svg" viewBox="0 0 24 24" fill="currentColor">
  <path d="M11.979 0C5.678 0 .511 4.86.022 11.037l6.432 2.658a3.387 3.387 0 0 1 1.912-.59c.064 0 .128.003.191.006l2.866-4.158v-.058c0-2.27 1.845-4.116 4.116-4.116 2.27 0 4.116 1.846 4.116 4.116 0 2.272-1.846 4.117-4.116 4.117h-.096l-4.09 2.921c0 .054.003.108.003.163 0 1.7-1.381 3.085-3.083 3.085a3.086 3.086 0 0 1-3.016-2.449L.332 14.63A12.019 12.019 0 0 0 11.979 24c6.627 0 12.001-5.373 12.001-12S18.606 0 11.979 0zM7.54 18.21l-1.473-.61a2.307 2.307 0 0 0 2.202 1.508 2.318 2.318 0 0 0 2.313-2.313 2.317 2.317 0 0 0-2.313-2.313c-.357 0-.694.082-.996.228l1.523.63a1.712 1.712 0 0 1-1.256 3.186zm8-9.319a2.744 2.744 0 0 1-2.74-2.742 2.744 2.744 0 0 1 2.74-2.74 2.744 2.744 0 0 1 2.74 2.74 2.744 2.744 0 0 1-2.74 2.742zm0-4.795a2.06 2.06 0 0 0-2.054 2.053 2.06 2.06 0 0 0 2.054 2.054 2.06 2.06 0 0 0 2.053-2.054 2.06 2.06 0 0 0-2.053-2.053z"/>
</svg>
